<?xml version="1.0" encoding="UTF-8"?>
<svg xmlns="http://www.w3.org/2000/svg" xmlns:xlink="http://www.w3.org/1999/xlink"
     width="800" height="700" viewBox="-375 -300 800 700">
<defs>
</defs>
<path d="M-237.42892666621913,224.60751011968836 L-254.74720381403571,241.3874039708355 L-186.92333429429058,245.67201430467244 L-169.60505714647397,228.8921204535253 Z" fill="#aa2244" fill-opacity="1" stroke-width="1.5" stroke="#444444" />
<path d="M-254.74720381403571,241.3874039708355 L-186.92333429429058,245.67201430467244 L-186.92333429429058,313.4958838244176 L-254.74720381403571,309.21127349058065 Z" fill="#ee2244" fill-opacity="1" stroke-width="1.5" stroke="#444444" />
<path d="M-186.92333429429058,245.67201430467244 L-169.60505714647397,228.8921204535253 L-169.60505714647397,296.7159899732705 L-186.92333429429058,313.4958838244176 Z" fill="#772244" fill-opacity="1" stroke-width="1.5" stroke="#444444" />
<path d="M237.33815997199693,254.5997824565471 L220.0198828241803,271.3796763076942 L287.8437523439255,275.66428664153113 L305.1620294917421,258.88439279038397 Z" fill="#aa2244" fill-opacity="1" stroke-width="1.5" stroke="#444444" />
<path d="M220.0198828241803,271.3796763076942 L287.8437523439255,275.66428664153113 L287.8437523439255,343.48815616127627 L220.0198828241803,339.2035458274393 Z" fill="#ee2244" fill-opacity="1" stroke-width="1.5" stroke="#444444" />
<path d="M287.8437523439255,275.66428664153113 L305.1620294917421,258.88439279038397 L305.1620294917421,326.70826231012916 L287.8437523439255,343.48815616127627 Z" fill="#772244" fill-opacity="1" stroke-width="1.5" stroke="#444444" />
<path d="M-169.60505714647397,161.0682509337802 L-186.92333429429058,177.84814478492729 L-119.09946477454544,182.1327551187643 L-101.78118762672882,165.35286126761716 Z" fill="#aa2244" fill-opacity="1" stroke-width="1.5" stroke="#444444" />
<path d="M-186.92333429429058,177.84814478492729 L-119.09946477454544,182.1327551187643 L-119.09946477454544,249.95662463850942 L-186.92333429429058,245.67201430467244 Z" fill="#ee2244" fill-opacity="1" stroke-width="1.5" stroke="#444444" />
<path d="M-119.09946477454544,182.1327551187643 L-101.78118762672882,165.35286126761716 L-101.78118762672882,233.17673078736226 L-119.09946477454544,249.95662463850942 Z" fill="#772244" fill-opacity="1" stroke-width="1.5" stroke="#444444" />
<path d="M169.51429045225174,182.49130260296496 L152.19601330443513,199.2711964541121 L220.0198828241803,203.55580678794905 L237.33815997199693,186.77591293680192 Z" fill="#aa2244" fill-opacity="1" stroke-width="1.5" stroke="#444444" />
<path d="M152.19601330443513,199.2711964541121 L220.0198828241803,203.55580678794905 L220.0198828241803,271.3796763076942 L152.19601330443513,267.09506597385723 Z" fill="#ee2244" fill-opacity="1" stroke-width="1.5" stroke="#444444" />
<path d="M220.0198828241803,203.55580678794905 L237.33815997199693,186.77591293680192 L237.33815997199693,254.5997824565471 L220.0198828241803,271.3796763076942 Z" fill="#772244" fill-opacity="1" stroke-width="1.5" stroke="#444444" />
<path d="M-237.42892666621913,88.95977108019805 L-254.74720381403571,105.73966493134519 L-186.92333429429058,110.02427526518215 L-169.60505714647397,93.24438141403502 Z" fill="#aa2244" fill-opacity="1" stroke-width="1.5" stroke="#444444" />
<path d="M-254.74720381403571,105.73966493134519 L-186.92333429429058,110.02427526518215 L-186.92333429429058,177.84814478492729 L-254.74720381403571,173.5635344510903 Z" fill="#ee2244" fill-opacity="1" stroke-width="1.5" stroke="#444444" />
<path d="M-186.92333429429058,110.02427526518215 L-169.60505714647397,93.24438141403502 L-169.60505714647397,161.0682509337802 L-186.92333429429058,177.84814478492729 Z" fill="#772244" fill-opacity="1" stroke-width="1.5" stroke="#444444" />
<path d="M-169.60505714647397,93.24438141403502 L-186.92333429429058,110.02427526518215 L-119.09946477454544,114.3088855990191 L-101.78118762672882,97.52899174787203 Z" fill="#aa2244" fill-opacity="1" stroke-width="1.5" stroke="#444444" />
<path d="M-186.92333429429058,110.02427526518215 L-119.09946477454544,114.3088855990191 L-119.09946477454544,182.1327551187643 L-186.92333429429058,177.84814478492729 Z" fill="#ee2244" fill-opacity="1" stroke-width="1.5" stroke="#444444" />
<path d="M-119.09946477454544,114.3088855990191 L-101.78118762672882,97.52899174787203 L-101.78118762672882,165.35286126761716 L-119.09946477454544,182.1327551187643 Z" fill="#772244" fill-opacity="1" stroke-width="1.5" stroke="#444444" />
<path d="M-101.78118762672882,97.52899174787203 L-119.09946477454544,114.3088855990191 L-51.27559525480029,118.59349593285606 L-33.957318106983664,101.81360208170898 Z" fill="#aa2244" fill-opacity="1" stroke-width="1.5" stroke="#444444" />
<path d="M-119.09946477454544,114.3088855990191 L-51.27559525480029,118.59349593285606 L-51.27559525480029,186.4173654526012 L-119.09946477454544,182.1327551187643 Z" fill="#ee2244" fill-opacity="1" stroke-width="1.5" stroke="#444444" />
<path d="M-51.27559525480029,118.59349593285606 L-33.957318106983664,101.81360208170898 L-33.957318106983664,169.6374716014541 L-51.27559525480029,186.4173654526012 Z" fill="#772244" fill-opacity="1" stroke-width="1.5" stroke="#444444" />
<path d="M-33.957318106983664,101.81360208170898 L-51.27559525480029,118.59349593285606 L16.54827426494487,122.87810626669301 L33.866551412761495,106.09821241554593 Z" fill="#aa2244" fill-opacity="1" stroke-width="1.5" stroke="#444444" />
<path d="M-51.27559525480029,118.59349593285606 L16.54827426494487,122.87810626669301 L16.54827426494487,190.7019757864382 L-51.27559525480029,186.4173654526012 Z" fill="#ee2244" fill-opacity="1" stroke-width="1.5" stroke="#444444" />
<path d="M16.54827426494487,122.87810626669301 L33.866551412761495,106.09821241554593 L33.866551412761495,173.92208193529106 L16.54827426494487,190.7019757864382 Z" fill="#772244" fill-opacity="1" stroke-width="1.5" stroke="#444444" />
<path d="M33.866551412761495,106.09821241554593 L16.54827426494487,122.87810626669301 L84.37214378469,127.16271660052996 L101.69042093250661,110.38282274938288 Z" fill="#aa2244" fill-opacity="1" stroke-width="1.5" stroke="#444444" />
<path d="M16.54827426494487,122.87810626669301 L84.37214378469,127.16271660052996 L84.37214378469,194.98658612027515 L16.54827426494487,190.7019757864382 Z" fill="#ee2244" fill-opacity="1" stroke-width="1.5" stroke="#444444" />
<path d="M84.37214378469,127.16271660052996 L101.69042093250661,110.38282274938288 L101.69042093250661,178.206692269128 L84.37214378469,194.98658612027515 Z" fill="#772244" fill-opacity="1" stroke-width="1.5" stroke="#444444" />
<path d="M101.69042093250661,110.38282274938288 L84.37214378469,127.16271660052996 L152.19601330443513,131.4473269343669 L169.51429045225174,114.66743308321983 Z" fill="#aa2244" fill-opacity="1" stroke-width="1.5" stroke="#444444" />
<path d="M84.37214378469,127.16271660052996 L152.19601330443513,131.4473269343669 L152.19601330443513,199.2711964541121 L84.37214378469,194.98658612027515 Z" fill="#ee2244" fill-opacity="1" stroke-width="1.5" stroke="#444444" />
<path d="M152.19601330443513,131.4473269343669 L169.51429045225174,114.66743308321983 L169.51429045225174,182.49130260296496 L152.19601330443513,199.2711964541121 Z" fill="#772244" fill-opacity="1" stroke-width="1.5" stroke="#444444" />
<path d="M169.51429045225174,114.66743308321983 L152.19601330443513,131.4473269343669 L220.0198828241803,135.73193726820386 L237.33815997199693,118.9520434170568 Z" fill="#aa2244" fill-opacity="1" stroke-width="1.5" stroke="#444444" />
<path d="M152.19601330443513,131.4473269343669 L220.0198828241803,135.73193726820386 L220.0198828241803,203.55580678794905 L152.19601330443513,199.2711964541121 Z" fill="#ee2244" fill-opacity="1" stroke-width="1.5" stroke="#444444" />
<path d="M220.0198828241803,135.73193726820386 L237.33815997199693,118.9520434170568 L237.33815997199693,186.77591293680192 L220.0198828241803,203.55580678794905 Z" fill="#772244" fill-opacity="1" stroke-width="1.5" stroke="#444444" />
<path d="M237.33815997199693,118.9520434170568 L220.0198828241803,135.73193726820386 L287.8437523439255,140.01654760204082 L305.1620294917421,123.23665375089375 Z" fill="#aa2244" fill-opacity="1" stroke-width="1.5" stroke="#444444" />
<path d="M220.0198828241803,135.73193726820386 L287.8437523439255,140.01654760204082 L287.8437523439255,207.840417121786 L220.0198828241803,203.55580678794905 Z" fill="#ee2244" fill-opacity="1" stroke-width="1.5" stroke="#444444" />
<path d="M287.8437523439255,140.01654760204082 L305.1620294917421,123.23665375089375 L305.1620294917421,191.06052327063887 L287.8437523439255,207.840417121786 Z" fill="#772244" fill-opacity="1" stroke-width="1.5" stroke="#444444" />
<path d="M-305.25279618596426,16.85129122661598 L-322.5710733337809,33.631185077763085 L-254.74720381403571,37.91579541160004 L-237.42892666621913,21.135901560452936 Z" fill="#aa2244" fill-opacity="1" stroke-width="1.5" stroke="#444444" />
<path d="M-322.5710733337809,33.631185077763085 L-254.74720381403571,37.91579541160004 L-254.74720381403571,105.73966493134519 L-322.5710733337809,101.45505459750824 Z" fill="#ee2244" fill-opacity="1" stroke-width="1.5" stroke="#444444" />
<path d="M-254.74720381403571,37.91579541160004 L-237.42892666621913,21.135901560452936 L-237.42892666621913,88.95977108019805 L-254.74720381403571,105.73966493134519 Z" fill="#772244" fill-opacity="1" stroke-width="1.5" stroke="#444444" />
<path d="M-237.42892666621913,21.135901560452936 L-254.74720381403571,37.91579541160004 L-186.92333429429058,42.200405745436996 L-169.60505714647397,25.420511894289888 Z" fill="#aa2244" fill-opacity="1" stroke-width="1.5" stroke="#444444" />
<path d="M-254.74720381403571,37.91579541160004 L-186.92333429429058,42.200405745436996 L-186.92333429429058,110.02427526518215 L-254.74720381403571,105.73966493134519 Z" fill="#ee2244" fill-opacity="1" stroke-width="1.5" stroke="#444444" />
<path d="M-186.92333429429058,42.200405745436996 L-169.60505714647397,25.420511894289888 L-169.60505714647397,93.24438141403502 L-186.92333429429058,110.02427526518215 Z" fill="#772244" fill-opacity="1" stroke-width="1.5" stroke="#444444" />
<path d="M-169.60505714647397,25.420511894289888 L-186.92333429429058,42.200405745436996 L-119.09946477454544,46.485016079273976 L-101.78118762672882,29.70512222812684 Z" fill="#aa2244" fill-opacity="1" stroke-width="1.5" stroke="#444444" />
<path d="M-186.92333429429058,42.200405745436996 L-119.09946477454544,46.485016079273976 L-119.09946477454544,114.3088855990191 L-186.92333429429058,110.02427526518215 Z" fill="#ee2244" fill-opacity="1" stroke-width="1.5" stroke="#444444" />
<path d="M-119.09946477454544,46.485016079273976 L-101.78118762672882,29.70512222812684 L-101.78118762672882,97.52899174787203 L-119.09946477454544,114.3088855990191 Z" fill="#772244" fill-opacity="1" stroke-width="1.5" stroke="#444444" />
<path d="M-101.78118762672882,29.70512222812684 L-119.09946477454544,46.485016079273976 L-51.27559525480029,50.76962641311093 L-33.957318106983664,33.98973256196379 Z" fill="#aa2244" fill-opacity="1" stroke-width="1.5" stroke="#444444" />
<path d="M-119.09946477454544,46.485016079273976 L-51.27559525480029,50.76962641311093 L-51.27559525480029,118.59349593285606 L-119.09946477454544,114.3088855990191 Z" fill="#ee2244" fill-opacity="1" stroke-width="1.5" stroke="#444444" />
<path d="M-51.27559525480029,50.76962641311093 L-33.957318106983664,33.98973256196379 L-33.957318106983664,101.81360208170898 L-51.27559525480029,118.59349593285606 Z" fill="#772244" fill-opacity="1" stroke-width="1.5" stroke="#444444" />
<path d="M-33.957318106983664,33.98973256196379 L-51.27559525480029,50.76962641311093 L16.54827426494487,55.054236746947886 L33.866551412761495,38.27434289580075 Z" fill="#aa2244" fill-opacity="1" stroke-width="1.5" stroke="#444444" />
<path d="M-51.27559525480029,50.76962641311093 L16.54827426494487,55.054236746947886 L16.54827426494487,122.87810626669301 L-51.27559525480029,118.59349593285606 Z" fill="#ee2244" fill-opacity="1" stroke-width="1.5" stroke="#444444" />
<path d="M16.54827426494487,55.054236746947886 L33.866551412761495,38.27434289580075 L33.866551412761495,106.09821241554593 L16.54827426494487,122.87810626669301 Z" fill="#772244" fill-opacity="1" stroke-width="1.5" stroke="#444444" />
<path d="M33.866551412761495,38.27434289580075 L16.54827426494487,55.054236746947886 L84.37214378469,59.33884708078484 L101.69042093250661,42.5589532296377 Z" fill="#aa2244" fill-opacity="1" stroke-width="1.5" stroke="#444444" />
<path d="M16.54827426494487,55.054236746947886 L84.37214378469,59.33884708078484 L84.37214378469,127.16271660052996 L16.54827426494487,122.87810626669301 Z" fill="#ee2244" fill-opacity="1" stroke-width="1.5" stroke="#444444" />
<path d="M84.37214378469,59.33884708078484 L101.69042093250661,42.5589532296377 L101.69042093250661,110.38282274938288 L84.37214378469,127.16271660052996 Z" fill="#772244" fill-opacity="1" stroke-width="1.5" stroke="#444444" />
<path d="M101.69042093250661,42.5589532296377 L84.37214378469,59.33884708078484 L152.19601330443513,63.62345741462179 L169.51429045225174,46.84356356347469 Z" fill="#aa2244" fill-opacity="1" stroke-width="1.5" stroke="#444444" />
<path d="M84.37214378469,59.33884708078484 L152.19601330443513,63.62345741462179 L152.19601330443513,131.4473269343669 L84.37214378469,127.16271660052996 Z" fill="#ee2244" fill-opacity="1" stroke-width="1.5" stroke="#444444" />
<path d="M152.19601330443513,63.62345741462179 L169.51429045225174,46.84356356347469 L169.51429045225174,114.66743308321983 L152.19601330443513,131.4473269343669 Z" fill="#772244" fill-opacity="1" stroke-width="1.5" stroke="#444444" />
<path d="M169.51429045225174,46.84356356347469 L152.19601330443513,63.62345741462179 L220.0198828241803,67.90806774845875 L237.33815997199693,51.12817389731164 Z" fill="#aa2244" fill-opacity="1" stroke-width="1.5" stroke="#444444" />
<path d="M152.19601330443513,63.62345741462179 L220.0198828241803,67.90806774845875 L220.0198828241803,135.73193726820386 L152.19601330443513,131.4473269343669 Z" fill="#ee2244" fill-opacity="1" stroke-width="1.5" stroke="#444444" />
<path d="M220.0198828241803,67.90806774845875 L237.33815997199693,51.12817389731164 L237.33815997199693,118.9520434170568 L220.0198828241803,135.73193726820386 Z" fill="#772244" fill-opacity="1" stroke-width="1.5" stroke="#444444" />
<path d="M237.33815997199693,51.12817389731164 L220.0198828241803,67.90806774845875 L287.8437523439255,72.1926780822957 L305.1620294917421,55.41278423114859 Z" fill="#aa2244" fill-opacity="1" stroke-width="1.5" stroke="#444444" />
<path d="M220.0198828241803,67.90806774845875 L287.8437523439255,72.1926780822957 L287.8437523439255,140.01654760204082 L220.0198828241803,135.73193726820386 Z" fill="#ee2244" fill-opacity="1" stroke-width="1.5" stroke="#444444" />
<path d="M287.8437523439255,72.1926780822957 L305.1620294917421,55.41278423114859 L305.1620294917421,123.23665375089375 L287.8437523439255,140.01654760204082 Z" fill="#772244" fill-opacity="1" stroke-width="1.5" stroke="#444444" />
<path d="M305.1620294917421,55.41278423114859 L287.8437523439255,72.1926780822957 L355.6676218636706,76.47728841613265 L372.9858990114872,59.697394564985544 Z" fill="#aa2244" fill-opacity="1" stroke-width="1.5" stroke="#444444" />
<path d="M287.8437523439255,72.1926780822957 L355.6676218636706,76.47728841613265 L355.6676218636706,144.30115793587777 L287.8437523439255,140.01654760204082 Z" fill="#ee2244" fill-opacity="1" stroke-width="1.5" stroke="#444444" />
<path d="M355.6676218636706,76.47728841613265 L372.9858990114872,59.697394564985544 L372.9858990114872,127.5212640847307 L355.6676218636706,144.30115793587777 Z" fill="#772244" fill-opacity="1" stroke-width="1.5" stroke="#444444" />
<path d="M-305.25279618596426,-50.972578293129175 L-322.5710733337809,-34.19268444198207 L-254.74720381403571,-29.908074108145115 L-237.42892666621913,-46.68796795929222 Z" fill="#aa2244" fill-opacity="1" stroke-width="1.5" stroke="#444444" />
<path d="M-322.5710733337809,-34.19268444198207 L-254.74720381403571,-29.908074108145115 L-254.74720381403571,37.91579541160004 L-322.5710733337809,33.631185077763085 Z" fill="#ee2244" fill-opacity="1" stroke-width="1.5" stroke="#444444" />
<path d="M-254.74720381403571,-29.908074108145115 L-237.42892666621913,-46.68796795929222 L-237.42892666621913,21.135901560452936 L-254.74720381403571,37.91579541160004 Z" fill="#772244" fill-opacity="1" stroke-width="1.5" stroke="#444444" />
<path d="M-237.42892666621913,-46.68796795929222 L-254.74720381403571,-29.908074108145115 L-186.92333429429058,-25.62346377430813 L-169.60505714647397,-42.403357625455264 Z" fill="#aa2244" fill-opacity="1" stroke-width="1.5" stroke="#444444" />
<path d="M-254.74720381403571,-29.908074108145115 L-186.92333429429058,-25.62346377430813 L-186.92333429429058,42.200405745436996 L-254.74720381403571,37.91579541160004 Z" fill="#ee2244" fill-opacity="1" stroke-width="1.5" stroke="#444444" />
<path d="M-186.92333429429058,-25.62346377430813 L-169.60505714647397,-42.403357625455264 L-169.60505714647397,25.420511894289888 L-186.92333429429058,42.200405745436996 Z" fill="#772244" fill-opacity="1" stroke-width="1.5" stroke="#444444" />
<path d="M-169.60505714647397,-42.403357625455264 L-186.92333429429058,-25.62346377430813 L-119.09946477454544,-21.338853440471176 L-101.78118762672882,-38.118747291618284 Z" fill="#aa2244" fill-opacity="1" stroke-width="1.5" stroke="#444444" />
<path d="M-186.92333429429058,-25.62346377430813 L-119.09946477454544,-21.338853440471176 L-119.09946477454544,46.485016079273976 L-186.92333429429058,42.200405745436996 Z" fill="#ee2244" fill-opacity="1" stroke-width="1.5" stroke="#444444" />
<path d="M-119.09946477454544,-21.338853440471176 L-101.78118762672882,-38.118747291618284 L-101.78118762672882,29.70512222812684 L-119.09946477454544,46.485016079273976 Z" fill="#772244" fill-opacity="1" stroke-width="1.5" stroke="#444444" />
<path d="M-33.957318106983664,-33.834136957781325 L-51.27559525480029,-17.054243106634225 L16.54827426494487,-12.76963277279727 L33.866551412761495,-29.549526623944374 Z" fill="#aa2244" fill-opacity="1" stroke-width="1.5" stroke="#444444" />
<path d="M-51.27559525480029,-17.054243106634225 L16.54827426494487,-12.76963277279727 L16.54827426494487,55.054236746947886 L-51.27559525480029,50.76962641311093 Z" fill="#ee2244" fill-opacity="1" stroke-width="1.5" stroke="#444444" />
<path d="M16.54827426494487,-12.76963277279727 L33.866551412761495,-29.549526623944374 L33.866551412761495,38.27434289580075 L16.54827426494487,55.054236746947886 Z" fill="#772244" fill-opacity="1" stroke-width="1.5" stroke="#444444" />
<path d="M33.866551412761495,-29.549526623944374 L16.54827426494487,-12.76963277279727 L84.37214378469,-8.485022438960318 L101.69042093250661,-25.264916290107422 Z" fill="#aa2244" fill-opacity="1" stroke-width="1.5" stroke="#444444" />
<path d="M16.54827426494487,-12.76963277279727 L84.37214378469,-8.485022438960318 L84.37214378469,59.33884708078484 L16.54827426494487,55.054236746947886 Z" fill="#ee2244" fill-opacity="1" stroke-width="1.5" stroke="#444444" />
<path d="M84.37214378469,-8.485022438960318 L101.69042093250661,-25.264916290107422 L101.69042093250661,42.5589532296377 L84.37214378469,59.33884708078484 Z" fill="#772244" fill-opacity="1" stroke-width="1.5" stroke="#444444" />
<path d="M169.51429045225174,-20.98030595627047 L152.19601330443513,-4.200412105123363 L220.0198828241803,0.08419822871359006 L237.33815997199693,-16.695695622433515 Z" fill="#aa2244" fill-opacity="1" stroke-width="1.5" stroke="#444444" />
<path d="M152.19601330443513,-4.200412105123363 L220.0198828241803,0.08419822871359006 L220.0198828241803,67.90806774845875 L152.19601330443513,63.62345741462179 Z" fill="#ee2244" fill-opacity="1" stroke-width="1.5" stroke="#444444" />
<path d="M220.0198828241803,0.08419822871359006 L237.33815997199693,-16.695695622433515 L237.33815997199693,51.12817389731164 L220.0198828241803,67.90806774845875 Z" fill="#772244" fill-opacity="1" stroke-width="1.5" stroke="#444444" />
<path d="M237.33815997199693,-16.695695622433515 L220.0198828241803,0.08419822871359006 L287.8437523439255,4.3688085625505435 L305.1620294917421,-12.411085288596562 Z" fill="#aa2244" fill-opacity="1" stroke-width="1.5" stroke="#444444" />
<path d="M220.0198828241803,0.08419822871359006 L287.8437523439255,4.3688085625505435 L287.8437523439255,72.1926780822957 L220.0198828241803,67.90806774845875 Z" fill="#ee2244" fill-opacity="1" stroke-width="1.5" stroke="#444444" />
<path d="M287.8437523439255,4.3688085625505435 L305.1620294917421,-12.411085288596562 L305.1620294917421,55.41278423114859 L287.8437523439255,72.1926780822957 Z" fill="#772244" fill-opacity="1" stroke-width="1.5" stroke="#444444" />
<path d="M305.1620294917421,-12.411085288596562 L287.8437523439255,4.3688085625505435 L355.6676218636706,8.653418896387496 L372.9858990114872,-8.126474954759608 Z" fill="#aa2244" fill-opacity="1" stroke-width="1.5" stroke="#444444" />
<path d="M287.8437523439255,4.3688085625505435 L355.6676218636706,8.653418896387496 L355.6676218636706,76.47728841613265 L287.8437523439255,72.1926780822957 Z" fill="#ee2244" fill-opacity="1" stroke-width="1.5" stroke="#444444" />
<path d="M355.6676218636706,8.653418896387496 L372.9858990114872,-8.126474954759608 L372.9858990114872,59.697394564985544 L355.6676218636706,76.47728841613265 Z" fill="#772244" fill-opacity="1" stroke-width="1.5" stroke="#444444" />
<path d="M-305.25279618596426,-118.79644781287432 L-322.5710733337809,-102.01655396172721 L-254.74720381403571,-97.73194362789025 L-237.42892666621913,-114.51183747903735 Z" fill="#aa2244" fill-opacity="1" stroke-width="1.5" stroke="#444444" />
<path d="M-322.5710733337809,-102.01655396172721 L-254.74720381403571,-97.73194362789025 L-254.74720381403571,-29.908074108145115 L-322.5710733337809,-34.19268444198207 Z" fill="#ee2244" fill-opacity="1" stroke-width="1.5" stroke="#444444" />
<path d="M-254.74720381403571,-97.73194362789025 L-237.42892666621913,-114.51183747903735 L-237.42892666621913,-46.68796795929222 L-254.74720381403571,-29.908074108145115 Z" fill="#772244" fill-opacity="1" stroke-width="1.5" stroke="#444444" />
<path d="M-169.60505714647397,-110.2272271452004 L-186.92333429429058,-93.44733329405328 L-119.09946477454544,-89.16272296021633 L-101.78118762672882,-105.94261681136344 Z" fill="#aa2244" fill-opacity="1" stroke-width="1.5" stroke="#444444" />
<path d="M-186.92333429429058,-93.44733329405328 L-119.09946477454544,-89.16272296021633 L-119.09946477454544,-21.338853440471176 L-186.92333429429058,-25.62346377430813 Z" fill="#ee2244" fill-opacity="1" stroke-width="1.5" stroke="#444444" />
<path d="M-119.09946477454544,-89.16272296021633 L-101.78118762672882,-105.94261681136344 L-101.78118762672882,-38.118747291618284 L-119.09946477454544,-21.338853440471176 Z" fill="#772244" fill-opacity="1" stroke-width="1.5" stroke="#444444" />
<path d="M-101.78118762672882,-105.94261681136344 L-119.09946477454544,-89.16272296021633 L-51.27559525480029,-84.87811262637938 L-33.957318106983664,-101.65800647752648 Z" fill="#aa2244" fill-opacity="1" stroke-width="1.5" stroke="#444444" />
<path d="M-119.09946477454544,-89.16272296021633 L-51.27559525480029,-84.87811262637938 L-51.27559525480029,-17.054243106634225 L-119.09946477454544,-21.338853440471176 Z" fill="#ee2244" fill-opacity="1" stroke-width="1.5" stroke="#444444" />
<path d="M-51.27559525480029,-84.87811262637938 L-33.957318106983664,-101.65800647752648 L-33.957318106983664,-33.834136957781325 L-51.27559525480029,-17.054243106634225 Z" fill="#772244" fill-opacity="1" stroke-width="1.5" stroke="#444444" />
<path d="M-33.957318106983664,-101.65800647752648 L-51.27559525480029,-84.87811262637938 L16.54827426494487,-80.59350229254242 L33.866551412761495,-97.37339614368953 Z" fill="#aa2244" fill-opacity="1" stroke-width="1.5" stroke="#444444" />
<path d="M-51.27559525480029,-84.87811262637938 L16.54827426494487,-80.59350229254242 L16.54827426494487,-12.76963277279727 L-51.27559525480029,-17.054243106634225 Z" fill="#ee2244" fill-opacity="1" stroke-width="1.5" stroke="#444444" />
<path d="M16.54827426494487,-80.59350229254242 L33.866551412761495,-97.37339614368953 L33.866551412761495,-29.549526623944374 L16.54827426494487,-12.76963277279727 Z" fill="#772244" fill-opacity="1" stroke-width="1.5" stroke="#444444" />
<path d="M33.866551412761495,-97.37339614368953 L16.54827426494487,-80.59350229254242 L84.37214378469,-76.30889195870547 L101.69042093250661,-93.08878580985258 Z" fill="#aa2244" fill-opacity="1" stroke-width="1.5" stroke="#444444" />
<path d="M16.54827426494487,-80.59350229254242 L84.37214378469,-76.30889195870547 L84.37214378469,-8.485022438960318 L16.54827426494487,-12.76963277279727 Z" fill="#ee2244" fill-opacity="1" stroke-width="1.5" stroke="#444444" />
<path d="M84.37214378469,-76.30889195870547 L101.69042093250661,-93.08878580985258 L101.69042093250661,-25.264916290107422 L84.37214378469,-8.485022438960318 Z" fill="#772244" fill-opacity="1" stroke-width="1.5" stroke="#444444" />
<path d="M101.69042093250661,-93.08878580985258 L84.37214378469,-76.30889195870547 L152.19601330443513,-72.02428162486851 L169.51429045225174,-88.80417547601563 Z" fill="#aa2244" fill-opacity="1" stroke-width="1.5" stroke="#444444" />
<path d="M84.37214378469,-76.30889195870547 L152.19601330443513,-72.02428162486851 L152.19601330443513,-4.200412105123363 L84.37214378469,-8.485022438960318 Z" fill="#ee2244" fill-opacity="1" stroke-width="1.5" stroke="#444444" />
<path d="M152.19601330443513,-72.02428162486851 L169.51429045225174,-88.80417547601563 L169.51429045225174,-20.98030595627047 L152.19601330443513,-4.200412105123363 Z" fill="#772244" fill-opacity="1" stroke-width="1.5" stroke="#444444" />
<path d="M169.51429045225174,-88.80417547601563 L152.19601330443513,-72.02428162486851 L220.0198828241803,-67.73967129103157 L237.33815997199693,-84.51956514217866 Z" fill="#aa2244" fill-opacity="1" stroke-width="1.5" stroke="#444444" />
<path d="M152.19601330443513,-72.02428162486851 L220.0198828241803,-67.73967129103157 L220.0198828241803,0.08419822871359006 L152.19601330443513,-4.200412105123363 Z" fill="#ee2244" fill-opacity="1" stroke-width="1.5" stroke="#444444" />
<path d="M220.0198828241803,-67.73967129103157 L237.33815997199693,-84.51956514217866 L237.33815997199693,-16.695695622433515 L220.0198828241803,0.08419822871359006 Z" fill="#772244" fill-opacity="1" stroke-width="1.5" stroke="#444444" />
<path d="M305.1620294917421,-80.23495480834171 L287.8437523439255,-63.45506095719461 L355.6676218636706,-59.170450623357624 L372.9858990114872,-75.95034447450475 Z" fill="#aa2244" fill-opacity="1" stroke-width="1.5" stroke="#444444" />
<path d="M287.8437523439255,-63.45506095719461 L355.6676218636706,-59.170450623357624 L355.6676218636706,8.653418896387496 L287.8437523439255,4.3688085625505435 Z" fill="#ee2244" fill-opacity="1" stroke-width="1.5" stroke="#444444" />
<path d="M355.6676218636706,-59.170450623357624 L372.9858990114872,-75.95034447450475 L372.9858990114872,-8.126474954759608 L355.6676218636706,8.653418896387496 Z" fill="#772244" fill-opacity="1" stroke-width="1.5" stroke="#444444" />
<path d="M-305.25279618596426,-186.62031733261946 L-322.5710733337809,-169.84042348147236 L-254.74720381403571,-165.5558131476354 L-237.42892666621913,-182.33570699878248 Z" fill="#aa2244" fill-opacity="1" stroke-width="1.5" stroke="#444444" />
<path d="M-322.5710733337809,-169.84042348147236 L-254.74720381403571,-165.5558131476354 L-254.74720381403571,-97.73194362789025 L-322.5710733337809,-102.01655396172721 Z" fill="#ee2244" fill-opacity="1" stroke-width="1.5" stroke="#444444" />
<path d="M-254.74720381403571,-165.5558131476354 L-237.42892666621913,-182.33570699878248 L-237.42892666621913,-114.51183747903735 L-254.74720381403571,-97.73194362789025 Z" fill="#772244" fill-opacity="1" stroke-width="1.5" stroke="#444444" />
<path d="M-101.78118762672882,-173.76648633110858 L-119.09946477454544,-156.98659247996147 L-51.27559525480029,-152.70198214612452 L-33.957318106983664,-169.48187599727163 Z" fill="#aa2244" fill-opacity="1" stroke-width="1.5" stroke="#444444" />
<path d="M-119.09946477454544,-156.98659247996147 L-51.27559525480029,-152.70198214612452 L-51.27559525480029,-84.87811262637938 L-119.09946477454544,-89.16272296021633 Z" fill="#ee2244" fill-opacity="1" stroke-width="1.5" stroke="#444444" />
<path d="M-51.27559525480029,-152.70198214612452 L-33.957318106983664,-169.48187599727163 L-33.957318106983664,-101.65800647752648 L-51.27559525480029,-84.87811262637938 Z" fill="#772244" fill-opacity="1" stroke-width="1.5" stroke="#444444" />
<path d="M101.69042093250661,-160.91265532959773 L84.37214378469,-144.1327614784506 L152.19601330443513,-139.84815114461367 L169.51429045225174,-156.62804499576077 Z" fill="#aa2244" fill-opacity="1" stroke-width="1.5" stroke="#444444" />
<path d="M84.37214378469,-144.1327614784506 L152.19601330443513,-139.84815114461367 L152.19601330443513,-72.02428162486851 L84.37214378469,-76.30889195870547 Z" fill="#ee2244" fill-opacity="1" stroke-width="1.5" stroke="#444444" />
<path d="M152.19601330443513,-139.84815114461367 L169.51429045225174,-156.62804499576077 L169.51429045225174,-88.80417547601563 L152.19601330443513,-72.02428162486851 Z" fill="#772244" fill-opacity="1" stroke-width="1.5" stroke="#444444" />
<path d="M305.1620294917421,-148.05882432808687 L287.8437523439255,-131.27893047693976 L355.6676218636706,-126.99432014310278 L372.9858990114872,-143.7742139942499 Z" fill="#aa2244" fill-opacity="1" stroke-width="1.5" stroke="#444444" />
<path d="M287.8437523439255,-131.27893047693976 L355.6676218636706,-126.99432014310278 L355.6676218636706,-59.170450623357624 L287.8437523439255,-63.45506095719461 Z" fill="#ee2244" fill-opacity="1" stroke-width="1.5" stroke="#444444" />
<path d="M355.6676218636706,-126.99432014310278 L372.9858990114872,-143.7742139942499 L372.9858990114872,-75.95034447450475 L355.6676218636706,-59.170450623357624 Z" fill="#772244" fill-opacity="1" stroke-width="1.5" stroke="#444444" />
<path d="M-169.60505714647397,-245.8749661846907 L-186.92333429429058,-229.09507233354358 L-119.09946477454544,-224.81046199970663 L-101.78118762672882,-241.59035585085374 Z" fill="#aa2244" fill-opacity="1" stroke-width="1.5" stroke="#444444" />
<path d="M-186.92333429429058,-229.09507233354358 L-119.09946477454544,-224.81046199970663 L-119.09946477454544,-156.98659247996147 L-186.92333429429058,-161.27120281379845 Z" fill="#ee2244" fill-opacity="1" stroke-width="1.5" stroke="#444444" />
<path d="M-119.09946477454544,-224.81046199970663 L-101.78118762672882,-241.59035585085374 L-101.78118762672882,-173.76648633110858 L-119.09946477454544,-156.98659247996147 Z" fill="#772244" fill-opacity="1" stroke-width="1.5" stroke="#444444" />
<path d="M169.51429045225174,-224.4519145155059 L152.19601330443513,-207.6720206643588 L220.0198828241803,-203.38741033052185 L237.33815997199693,-220.16730418166895 Z" fill="#aa2244" fill-opacity="1" stroke-width="1.5" stroke="#444444" />
<path d="M152.19601330443513,-207.6720206643588 L220.0198828241803,-203.38741033052185 L220.0198828241803,-135.56354081077671 L152.19601330443513,-139.84815114461367 Z" fill="#ee2244" fill-opacity="1" stroke-width="1.5" stroke="#444444" />
<path d="M220.0198828241803,-203.38741033052185 L237.33815997199693,-220.16730418166895 L237.33815997199693,-152.34343466192382 L220.0198828241803,-135.56354081077671 Z" fill="#772244" fill-opacity="1" stroke-width="1.5" stroke="#444444" />
</svg>